<?xml version="1.0" encoding="iso-8859-1"?>
<!-- Generator: Adobe Illustrator 19.1.0, SVG Export Plug-In . SVG Version: 6.00 Build 0)  -->
<svg version="1.1" id="Layer_1" xmlns="http://www.w3.org/2000/svg" xmlns:xlink="http://www.w3.org/1999/xlink" x="0px" y="0px"
	 width="100px" height="100px" viewBox="0 0 100 100" style="enable-background:new 0 0 100 100;" xml:space="preserve">
<g>
	<g>
		<linearGradient id="SVGID_1_" gradientUnits="userSpaceOnUse" x1="49.7863" y1="97.6061" x2="49.7863" y2="-2.6488">
			<stop  offset="0" style="stop-color:#FFF33B"/>
			<stop  offset="0.0595" style="stop-color:#FFE029"/>
			<stop  offset="0.1303" style="stop-color:#FFD218"/>
			<stop  offset="0.2032" style="stop-color:#FEC90F"/>
			<stop  offset="0.2809" style="stop-color:#FDC70C"/>
			<stop  offset="0.6685" style="stop-color:#F3903F"/>
			<stop  offset="0.8876" style="stop-color:#ED683C"/>
			<stop  offset="1" style="stop-color:#E93E3A"/>
		</linearGradient>
		<path style="fill:url(#SVGID_1_);" d="M85.236,8.246H72.078c0.292-0.554,0.472-1.175,0.472-1.841V5.754c0-2.2-1.8-4-4-4H31.022
			c-2.2,0-4,1.8-4,4v0.651c0,0.667,0.181,1.287,0.472,1.841H14.336c-8.003,0-14.55,6.547-14.55,14.55v60.9
			c0,8.003,6.547,14.55,14.55,14.55h70.9c8.003,0,14.55-6.548,14.55-14.55v-60.9C99.786,14.793,93.239,8.246,85.236,8.246z
			 M92.786,83.696c0,4.163-3.387,7.55-7.55,7.55h-70.9c-4.163,0-7.55-3.387-7.55-7.55v-60.9c0-4.163,3.387-7.55,7.55-7.55h70.9
			c4.163,0,7.55,3.387,7.55,7.55V83.696z"/>
	</g>
	<g id="DPJsA8.tif">
		<g>
			<linearGradient id="SVGID_2_" gradientUnits="userSpaceOnUse" x1="54.2524" y1="99.6061" x2="54.2524" y2="-0.6488">
				<stop  offset="0" style="stop-color:#FFF33B"/>
				<stop  offset="0.0595" style="stop-color:#FFE029"/>
				<stop  offset="0.1303" style="stop-color:#FFD218"/>
				<stop  offset="0.2032" style="stop-color:#FEC90F"/>
				<stop  offset="0.2809" style="stop-color:#FDC70C"/>
				<stop  offset="0.6685" style="stop-color:#F3903F"/>
				<stop  offset="0.8876" style="stop-color:#ED683C"/>
				<stop  offset="1" style="stop-color:#E93E3A"/>
			</linearGradient>
			<path style="fill:url(#SVGID_2_);" d="M52.83,61.027c0-1.344,0.008-2.688-0.007-4.032c-0.003-0.298,0.084-0.512,0.302-0.709
				c0.31-0.282,0.607-0.579,0.888-0.89c0.162-0.18,0.285-0.198,0.454-0.025c0.353,0.362,0.723,0.708,1.065,1.079
				c0.089,0.096,0.143,0.262,0.143,0.396c0.008,2.799,0.009,5.598-0.001,8.397c0,0.143-0.071,0.318-0.168,0.424
				c-0.332,0.364-0.695,0.699-1.037,1.055c-0.155,0.161-0.275,0.157-0.429-0.003c-0.341-0.356-0.707-0.689-1.037-1.054
				c-0.101-0.112-0.163-0.302-0.165-0.456C52.825,63.814,52.83,62.421,52.83,61.027z"/>
			<linearGradient id="SVGID_3_" gradientUnits="userSpaceOnUse" x1="27.8687" y1="99.6061" x2="27.8687" y2="-0.6488">
				<stop  offset="0" style="stop-color:#FFF33B"/>
				<stop  offset="0.0595" style="stop-color:#FFE029"/>
				<stop  offset="0.1303" style="stop-color:#FFD218"/>
				<stop  offset="0.2032" style="stop-color:#FEC90F"/>
				<stop  offset="0.2809" style="stop-color:#FDC70C"/>
				<stop  offset="0.6685" style="stop-color:#F3903F"/>
				<stop  offset="0.8876" style="stop-color:#ED683C"/>
				<stop  offset="1" style="stop-color:#E93E3A"/>
			</linearGradient>
			<path style="fill:url(#SVGID_3_);" d="M26.464,61.044c0-1.369-0.009-2.738,0.01-4.106c0.003-0.196,0.104-0.426,0.233-0.577
				c0.295-0.346,0.647-0.643,0.955-0.979c0.155-0.17,0.273-0.176,0.427-0.02c0.355,0.36,0.727,0.704,1.064,1.08
				c0.101,0.112,0.156,0.306,0.157,0.463c0.009,2.762,0.01,5.524-0.001,8.286c-0.001,0.166-0.075,0.367-0.185,0.49
				c-0.318,0.359-0.679,0.681-1.009,1.03c-0.169,0.179-0.306,0.174-0.455-0.009c-0.008-0.01-0.017-0.017-0.026-0.026
				c-0.384-0.398-0.903-0.737-1.113-1.213c-0.192-0.435-0.055-1.017-0.057-1.534C26.462,62.967,26.464,62.005,26.464,61.044z"/>
			<linearGradient id="SVGID_4_" gradientUnits="userSpaceOnUse" x1="45.4679" y1="99.6061" x2="45.4679" y2="-0.6488">
				<stop  offset="0" style="stop-color:#FFF33B"/>
				<stop  offset="0.0595" style="stop-color:#FFE029"/>
				<stop  offset="0.1303" style="stop-color:#FFD218"/>
				<stop  offset="0.2032" style="stop-color:#FEC90F"/>
				<stop  offset="0.2809" style="stop-color:#FDC70C"/>
				<stop  offset="0.6685" style="stop-color:#F3903F"/>
				<stop  offset="0.8876" style="stop-color:#ED683C"/>
				<stop  offset="1" style="stop-color:#E93E3A"/>
			</linearGradient>
			<path style="fill:url(#SVGID_4_);" d="M46.891,48.495c0,1.356-0.007,2.713,0.006,4.069c0.003,0.27-0.074,0.466-0.271,0.647
				c-0.326,0.301-0.641,0.615-0.94,0.943c-0.162,0.178-0.28,0.153-0.427,0.005c-0.356-0.359-0.726-0.705-1.065-1.079
				c-0.095-0.104-0.147-0.285-0.147-0.431c-0.008-2.774-0.009-5.549,0.001-8.323c0.001-0.156,0.064-0.347,0.166-0.461
				c0.329-0.367,0.694-0.7,1.036-1.055c0.152-0.158,0.272-0.168,0.429-0.004c0.35,0.365,0.725,0.706,1.061,1.082
				c0.099,0.111,0.143,0.307,0.145,0.464C46.895,45.733,46.891,47.114,46.891,48.495z"/>
			<linearGradient id="SVGID_5_" gradientUnits="userSpaceOnUse" x1="71.8308" y1="99.6061" x2="71.8308" y2="-0.6488">
				<stop  offset="0" style="stop-color:#FFF33B"/>
				<stop  offset="0.0595" style="stop-color:#FFE029"/>
				<stop  offset="0.1303" style="stop-color:#FFD218"/>
				<stop  offset="0.2032" style="stop-color:#FEC90F"/>
				<stop  offset="0.2809" style="stop-color:#FDC70C"/>
				<stop  offset="0.6685" style="stop-color:#F3903F"/>
				<stop  offset="0.8876" style="stop-color:#ED683C"/>
				<stop  offset="1" style="stop-color:#E93E3A"/>
			</linearGradient>
			<path style="fill:url(#SVGID_5_);" d="M73.256,48.466c0,1.381,0.008,2.762-0.01,4.143c-0.002,0.185-0.099,0.403-0.222,0.545
				c-0.306,0.353-0.662,0.663-0.981,1.006c-0.146,0.157-0.261,0.157-0.401,0.017c-0.366-0.366-0.741-0.724-1.092-1.104
				c-0.088-0.096-0.142-0.262-0.142-0.396c-0.008-2.799-0.009-5.598,0.001-8.397c0.001-0.143,0.074-0.316,0.171-0.422
				c0.332-0.364,0.696-0.699,1.037-1.055c0.158-0.165,0.279-0.148,0.43,0.008c0.342,0.355,0.708,0.688,1.037,1.054
				c0.101,0.113,0.161,0.303,0.163,0.458C73.262,45.704,73.256,47.085,73.256,48.466z"/>
			<linearGradient id="SVGID_6_" gradientUnits="userSpaceOnUse" x1="45.468" y1="99.6061" x2="45.468" y2="-0.6488">
				<stop  offset="0" style="stop-color:#FFF33B"/>
				<stop  offset="0.0595" style="stop-color:#FFE029"/>
				<stop  offset="0.1303" style="stop-color:#FFD218"/>
				<stop  offset="0.2032" style="stop-color:#FEC90F"/>
				<stop  offset="0.2809" style="stop-color:#FDC70C"/>
				<stop  offset="0.6685" style="stop-color:#F3903F"/>
				<stop  offset="0.8876" style="stop-color:#ED683C"/>
				<stop  offset="1" style="stop-color:#E93E3A"/>
			</linearGradient>
			<path style="fill:url(#SVGID_6_);" d="M46.891,61.065c0,1.356-0.007,2.712,0.006,4.068c0.003,0.271-0.078,0.465-0.274,0.646
				c-0.317,0.292-0.624,0.597-0.914,0.916c-0.18,0.197-0.309,0.181-0.483-0.001c-0.322-0.34-0.671-0.655-0.985-1.002
				c-0.105-0.116-0.192-0.297-0.193-0.449c-0.011-2.798-0.011-5.597-0.001-8.395c0-0.143,0.072-0.317,0.168-0.423
				c0.332-0.364,0.698-0.697,1.036-1.055c0.162-0.171,0.281-0.145,0.43,0.007c0.344,0.353,0.708,0.688,1.038,1.054
				c0.101,0.113,0.163,0.302,0.165,0.457C46.896,58.279,46.891,59.672,46.891,61.065z"/>
			<linearGradient id="SVGID_7_" gradientUnits="userSpaceOnUse" x1="78.109" y1="99.6061" x2="78.109" y2="-0.6488">
				<stop  offset="0" style="stop-color:#FFF33B"/>
				<stop  offset="0.0595" style="stop-color:#FFE029"/>
				<stop  offset="0.1303" style="stop-color:#FFD218"/>
				<stop  offset="0.2032" style="stop-color:#FEC90F"/>
				<stop  offset="0.2809" style="stop-color:#FDC70C"/>
				<stop  offset="0.6685" style="stop-color:#F3903F"/>
				<stop  offset="0.8876" style="stop-color:#ED683C"/>
				<stop  offset="1" style="stop-color:#E93E3A"/>
			</linearGradient>
			<path style="fill:url(#SVGID_7_);" d="M78.12,53.333c1.37,0,2.741-0.008,4.111,0.01c0.185,0.002,0.404,0.097,0.547,0.22
				c0.345,0.298,0.645,0.646,0.979,0.958c0.191,0.179,0.18,0.313-0.002,0.487c-0.348,0.333-0.673,0.69-1.028,1.014
				c-0.105,0.096-0.278,0.165-0.421,0.165c-2.802,0.009-5.605,0.01-8.407-0.001c-0.14-0.001-0.309-0.082-0.416-0.18
				c-0.354-0.325-0.679-0.682-1.029-1.013c-0.177-0.168-0.172-0.293,0-0.458c0.356-0.342,0.688-0.709,1.055-1.039
				c0.112-0.101,0.305-0.155,0.462-0.156C75.354,53.328,76.737,53.333,78.12,53.333z"/>
			<linearGradient id="SVGID_8_" gradientUnits="userSpaceOnUse" x1="54.2728" y1="99.6061" x2="54.2728" y2="-0.6488">
				<stop  offset="0" style="stop-color:#FFF33B"/>
				<stop  offset="0.0595" style="stop-color:#FFE029"/>
				<stop  offset="0.1303" style="stop-color:#FFD218"/>
				<stop  offset="0.2032" style="stop-color:#FEC90F"/>
				<stop  offset="0.2809" style="stop-color:#FDC70C"/>
				<stop  offset="0.6685" style="stop-color:#F3903F"/>
				<stop  offset="0.8876" style="stop-color:#ED683C"/>
				<stop  offset="1" style="stop-color:#E93E3A"/>
			</linearGradient>
			<path style="fill:url(#SVGID_8_);" d="M52.83,48.482c0-1.368-0.011-2.737,0.011-4.105c0.003-0.205,0.118-0.443,0.255-0.605
				c0.285-0.338,0.627-0.627,0.929-0.952c0.168-0.18,0.303-0.182,0.454,0.001c0.008,0.009,0.016,0.019,0.026,0.026
				c0.946,0.679,1.261,1.56,1.207,2.75c-0.105,2.288-0.037,4.585-0.024,6.878c0.002,0.337-0.09,0.584-0.342,0.807
				c-0.304,0.269-0.587,0.564-0.864,0.861c-0.149,0.159-0.269,0.187-0.429,0.023c-0.361-0.371-0.741-0.724-1.088-1.108
				c-0.092-0.102-0.129-0.287-0.13-0.434C52.826,51.243,52.83,49.863,52.83,48.482z"/>
			<linearGradient id="SVGID_9_" gradientUnits="userSpaceOnUse" x1="21.6103" y1="99.6061" x2="21.6103" y2="-0.6488">
				<stop  offset="0" style="stop-color:#FFF33B"/>
				<stop  offset="0.0595" style="stop-color:#FFE029"/>
				<stop  offset="0.1303" style="stop-color:#FFD218"/>
				<stop  offset="0.2032" style="stop-color:#FEC90F"/>
				<stop  offset="0.2809" style="stop-color:#FDC70C"/>
				<stop  offset="0.6685" style="stop-color:#F3903F"/>
				<stop  offset="0.8876" style="stop-color:#ED683C"/>
				<stop  offset="1" style="stop-color:#E93E3A"/>
			</linearGradient>
			<path style="fill:url(#SVGID_9_);" d="M21.595,56.194c-1.37,0-2.741,0.008-4.111-0.01c-0.185-0.002-0.403-0.101-0.545-0.224
				c-0.344-0.299-0.647-0.644-0.978-0.959c-0.169-0.16-0.192-0.289-0.015-0.46c0.364-0.351,0.708-0.724,1.08-1.067
				c0.095-0.088,0.262-0.136,0.396-0.136c2.79-0.008,5.58-0.009,8.37,0.002c0.152,0.001,0.335,0.082,0.45,0.185
				c0.348,0.314,0.66,0.667,1.005,0.985c0.21,0.194,0.196,0.345-0.012,0.51c-0.01,0.008-0.018,0.017-0.027,0.026
				c-0.39,0.376-0.721,0.888-1.187,1.089c-0.439,0.19-1.019,0.056-1.537,0.057C23.52,56.196,22.558,56.194,21.595,56.194z"/>
			<linearGradient id="SVGID_10_" gradientUnits="userSpaceOnUse" x1="71.8307" y1="99.6061" x2="71.8307" y2="-0.6488">
				<stop  offset="0" style="stop-color:#FFF33B"/>
				<stop  offset="0.0595" style="stop-color:#FFE029"/>
				<stop  offset="0.1303" style="stop-color:#FFD218"/>
				<stop  offset="0.2032" style="stop-color:#FEC90F"/>
				<stop  offset="0.2809" style="stop-color:#FDC70C"/>
				<stop  offset="0.6685" style="stop-color:#F3903F"/>
				<stop  offset="0.8876" style="stop-color:#ED683C"/>
				<stop  offset="1" style="stop-color:#E93E3A"/>
			</linearGradient>
			<path style="fill:url(#SVGID_10_);" d="M73.256,61.039c0,1.381,0.008,2.762-0.01,4.142c-0.002,0.185-0.102,0.402-0.226,0.544
				c-0.298,0.344-0.645,0.645-0.956,0.978c-0.165,0.177-0.29,0.181-0.456,0.008c-0.342-0.355-0.706-0.69-1.038-1.054
				c-0.096-0.105-0.16-0.281-0.161-0.425c-0.009-2.786-0.01-5.573,0.001-8.359c0.001-0.154,0.075-0.341,0.178-0.455
				c0.33-0.366,0.695-0.699,1.035-1.056c0.146-0.154,0.262-0.148,0.402-0.005c0.363,0.369,0.742,0.724,1.089,1.107
				c0.093,0.102,0.133,0.286,0.135,0.432C73.26,58.277,73.256,59.658,73.256,61.039z"/>
			<linearGradient id="SVGID_11_" gradientUnits="userSpaceOnUse" x1="27.8924" y1="99.6061" x2="27.8924" y2="-0.6488">
				<stop  offset="0" style="stop-color:#FFF33B"/>
				<stop  offset="0.0595" style="stop-color:#FFE029"/>
				<stop  offset="0.1303" style="stop-color:#FFD218"/>
				<stop  offset="0.2032" style="stop-color:#FEC90F"/>
				<stop  offset="0.2809" style="stop-color:#FDC70C"/>
				<stop  offset="0.6685" style="stop-color:#F3903F"/>
				<stop  offset="0.8876" style="stop-color:#ED683C"/>
				<stop  offset="1" style="stop-color:#E93E3A"/>
			</linearGradient>
			<path style="fill:url(#SVGID_11_);" d="M29.318,48.507c0,1.356,0.011,2.713-0.011,4.068c-0.003,0.206-0.116,0.446-0.252,0.608
				c-0.294,0.347-0.642,0.647-0.955,0.978c-0.144,0.152-0.26,0.154-0.402,0.01c-0.363-0.369-0.74-0.725-1.09-1.106
				c-0.087-0.095-0.135-0.261-0.136-0.395c-0.008-2.786-0.008-5.573,0.002-8.359c0.001-0.155,0.07-0.343,0.172-0.457
				c0.33-0.366,0.694-0.7,1.036-1.055c0.141-0.147,0.257-0.16,0.402-0.012c0.363,0.37,0.744,0.722,1.089,1.107
				c0.1,0.111,0.139,0.311,0.14,0.47C29.322,45.746,29.318,47.127,29.318,48.507z"/>
			<linearGradient id="SVGID_12_" gradientUnits="userSpaceOnUse" x1="60.5317" y1="99.6061" x2="60.5317" y2="-0.6488">
				<stop  offset="0" style="stop-color:#FFF33B"/>
				<stop  offset="0.0595" style="stop-color:#FFE029"/>
				<stop  offset="0.1303" style="stop-color:#FFD218"/>
				<stop  offset="0.2032" style="stop-color:#FEC90F"/>
				<stop  offset="0.2809" style="stop-color:#FDC70C"/>
				<stop  offset="0.6685" style="stop-color:#F3903F"/>
				<stop  offset="0.8876" style="stop-color:#ED683C"/>
				<stop  offset="1" style="stop-color:#E93E3A"/>
			</linearGradient>
			<path style="fill:url(#SVGID_12_);" d="M60.53,56.194c-1.369,0-2.738,0.01-4.107-0.011c-0.195-0.003-0.423-0.109-0.574-0.239
				c-0.345-0.297-0.648-0.642-0.976-0.959c-0.158-0.152-0.169-0.278-0.008-0.435c0.362-0.353,0.708-0.723,1.079-1.066
				c0.096-0.089,0.26-0.145,0.394-0.146c2.8-0.008,5.599-0.009,8.399,0.001c0.142,0.001,0.312,0.078,0.419,0.175
				c0.354,0.325,0.68,0.68,1.028,1.012c0.171,0.163,0.181,0.295,0.007,0.463c-0.355,0.343-0.686,0.712-1.055,1.037
				c-0.121,0.107-0.329,0.157-0.498,0.159C63.268,56.199,61.899,56.194,60.53,56.194z"/>
			<linearGradient id="SVGID_13_" gradientUnits="userSpaceOnUse" x1="39.1878" y1="99.6061" x2="39.1878" y2="-0.6488">
				<stop  offset="0" style="stop-color:#FFF33B"/>
				<stop  offset="0.0595" style="stop-color:#FFE029"/>
				<stop  offset="0.1303" style="stop-color:#FFD218"/>
				<stop  offset="0.2032" style="stop-color:#FEC90F"/>
				<stop  offset="0.2809" style="stop-color:#FDC70C"/>
				<stop  offset="0.6685" style="stop-color:#F3903F"/>
				<stop  offset="0.8876" style="stop-color:#ED683C"/>
				<stop  offset="1" style="stop-color:#E93E3A"/>
			</linearGradient>
			<path style="fill:url(#SVGID_13_);" d="M39.156,56.194c-1.357,0-2.714,0.009-4.07-0.011c-0.196-0.003-0.425-0.105-0.577-0.234
				c-0.337-0.287-0.629-0.626-0.951-0.931c-0.178-0.168-0.214-0.305-0.02-0.49c0.357-0.34,0.691-0.705,1.053-1.04
				c0.096-0.089,0.259-0.149,0.392-0.15c2.8-0.008,5.599-0.009,8.399,0.001c0.142,0,0.314,0.073,0.42,0.169
				c0.355,0.324,0.678,0.682,1.028,1.012c0.191,0.18,0.176,0.316-0.006,0.489c-0.322,0.305-0.614,0.644-0.951,0.932
				c-0.152,0.13-0.379,0.238-0.574,0.241C41.919,56.204,40.538,56.194,39.156,56.194z"/>
			<linearGradient id="SVGID_14_" gradientUnits="userSpaceOnUse" x1="84.3873" y1="99.6061" x2="84.3873" y2="-0.6488">
				<stop  offset="0" style="stop-color:#FFF33B"/>
				<stop  offset="0.0595" style="stop-color:#FFE029"/>
				<stop  offset="0.1303" style="stop-color:#FFD218"/>
				<stop  offset="0.2032" style="stop-color:#FEC90F"/>
				<stop  offset="0.2809" style="stop-color:#FDC70C"/>
				<stop  offset="0.6685" style="stop-color:#F3903F"/>
				<stop  offset="0.8876" style="stop-color:#ED683C"/>
				<stop  offset="1" style="stop-color:#E93E3A"/>
			</linearGradient>
			<path style="fill:url(#SVGID_14_);" d="M85.798,48.482c0,1.37,0.01,2.74-0.011,4.11c-0.003,0.206-0.112,0.446-0.247,0.607
				c-0.284,0.339-0.627,0.629-0.93,0.954c-0.156,0.167-0.279,0.165-0.431,0.011c-0.355-0.361-0.722-0.71-1.067-1.08
				c-0.081-0.087-0.133-0.237-0.133-0.359c-0.007-2.826-0.008-5.653,0.001-8.479c0-0.13,0.069-0.289,0.158-0.386
				c0.335-0.362,0.699-0.698,1.039-1.055c0.161-0.17,0.278-0.144,0.427,0.011c0.342,0.356,0.708,0.689,1.036,1.057
				c0.1,0.112,0.149,0.306,0.151,0.463C85.803,45.717,85.798,47.1,85.798,48.482z"/>
			<linearGradient id="SVGID_15_" gradientUnits="userSpaceOnUse" x1="15.3142" y1="99.6061" x2="15.3142" y2="-0.6488">
				<stop  offset="0" style="stop-color:#FFF33B"/>
				<stop  offset="0.0595" style="stop-color:#FFE029"/>
				<stop  offset="0.1303" style="stop-color:#FFD218"/>
				<stop  offset="0.2032" style="stop-color:#FEC90F"/>
				<stop  offset="0.2809" style="stop-color:#FDC70C"/>
				<stop  offset="0.6685" style="stop-color:#F3903F"/>
				<stop  offset="0.8876" style="stop-color:#ED683C"/>
				<stop  offset="1" style="stop-color:#E93E3A"/>
			</linearGradient>
			<path style="fill:url(#SVGID_15_);" d="M16.747,61.045c0,1.382,0.008,2.765-0.01,4.147c-0.002,0.183-0.102,0.399-0.225,0.541
				c-0.29,0.335-0.628,0.628-0.931,0.953c-0.171,0.183-0.314,0.223-0.478,0.01c-0.007-0.01-0.017-0.017-0.026-0.026
				c-0.378-0.389-0.892-0.718-1.094-1.183c-0.191-0.438-0.059-1.018-0.059-1.536c-0.002-2.333,0.003-4.665-0.006-6.998
				c-0.001-0.266,0.062-0.467,0.265-0.65c0.32-0.289,0.625-0.597,0.917-0.915c0.168-0.182,0.295-0.175,0.458-0.007
				c0.344,0.354,0.709,0.688,1.038,1.056c0.099,0.111,0.145,0.306,0.146,0.463C16.752,58.28,16.747,59.662,16.747,61.045z"/>
			<linearGradient id="SVGID_16_" gradientUnits="userSpaceOnUse" x1="15.3358" y1="99.6061" x2="15.3358" y2="-0.6488">
				<stop  offset="0" style="stop-color:#FFF33B"/>
				<stop  offset="0.0595" style="stop-color:#FFE029"/>
				<stop  offset="0.1303" style="stop-color:#FFD218"/>
				<stop  offset="0.2032" style="stop-color:#FEC90F"/>
				<stop  offset="0.2809" style="stop-color:#FDC70C"/>
				<stop  offset="0.6685" style="stop-color:#F3903F"/>
				<stop  offset="0.8876" style="stop-color:#ED683C"/>
				<stop  offset="1" style="stop-color:#E93E3A"/>
			</linearGradient>
			<path style="fill:url(#SVGID_16_);" d="M16.747,48.483c0,1.382,0.008,2.765-0.01,4.147c-0.002,0.184-0.1,0.401-0.223,0.543
				c-0.298,0.344-0.647,0.645-0.956,0.98c-0.158,0.172-0.281,0.161-0.43,0.011c-0.357-0.359-0.724-0.708-1.066-1.08
				c-0.087-0.095-0.133-0.262-0.133-0.397c-0.007-2.802-0.009-5.604,0.002-8.406c0.001-0.152,0.082-0.335,0.185-0.45
				c0.314-0.348,0.662-0.664,0.986-1.004c0.16-0.168,0.282-0.195,0.455-0.012c0.338,0.359,0.705,0.692,1.037,1.057
				c0.094,0.103,0.147,0.28,0.148,0.424C16.751,45.693,16.747,47.088,16.747,48.483z"/>
			<linearGradient id="SVGID_17_" gradientUnits="userSpaceOnUse" x1="84.3851" y1="99.6061" x2="84.3851" y2="-0.6488">
				<stop  offset="0" style="stop-color:#FFF33B"/>
				<stop  offset="0.0595" style="stop-color:#FFE029"/>
				<stop  offset="0.1303" style="stop-color:#FFD218"/>
				<stop  offset="0.2032" style="stop-color:#FEC90F"/>
				<stop  offset="0.2809" style="stop-color:#FDC70C"/>
				<stop  offset="0.6685" style="stop-color:#F3903F"/>
				<stop  offset="0.8876" style="stop-color:#ED683C"/>
				<stop  offset="1" style="stop-color:#E93E3A"/>
			</linearGradient>
			<path style="fill:url(#SVGID_17_);" d="M82.974,61.06c0-1.395-0.007-2.79,0.009-4.184c0.002-0.173,0.095-0.379,0.212-0.511
				c0.301-0.343,0.647-0.644,0.957-0.98c0.15-0.162,0.272-0.191,0.429-0.033c0.366,0.367,0.741,0.725,1.094,1.105
				c0.08,0.086,0.118,0.243,0.118,0.367c0.006,2.814,0.007,5.628-0.003,8.443c-0.001,0.141-0.077,0.312-0.174,0.418
				c-0.325,0.355-0.68,0.682-1.013,1.029c-0.151,0.157-0.268,0.175-0.427,0.008c-0.349-0.366-0.723-0.709-1.062-1.084
				c-0.092-0.102-0.134-0.284-0.135-0.429C82.97,63.825,82.974,62.443,82.974,61.06z"/>
			<linearGradient id="SVGID_18_" gradientUnits="userSpaceOnUse" x1="60.5328" y1="99.6061" x2="60.5328" y2="-0.6488">
				<stop  offset="0" style="stop-color:#FFF33B"/>
				<stop  offset="0.0595" style="stop-color:#FFE029"/>
				<stop  offset="0.1303" style="stop-color:#FFD218"/>
				<stop  offset="0.2032" style="stop-color:#FEC90F"/>
				<stop  offset="0.2809" style="stop-color:#FDC70C"/>
				<stop  offset="0.6685" style="stop-color:#F3903F"/>
				<stop  offset="0.8876" style="stop-color:#ED683C"/>
				<stop  offset="1" style="stop-color:#E93E3A"/>
			</linearGradient>
			<path style="fill:url(#SVGID_18_);" d="M60.541,65.913c1.381,0,2.763-0.008,4.144,0.01c0.183,0.002,0.397,0.103,0.538,0.225
				c0.335,0.29,0.628,0.628,0.951,0.931c0.189,0.178,0.182,0.315-0.002,0.49c-0.348,0.331-0.674,0.687-1.027,1.012
				c-0.095,0.087-0.255,0.147-0.385,0.147c-2.812,0.008-5.624,0.009-8.436-0.002c-0.151-0.001-0.332-0.082-0.446-0.185
				c-0.338-0.305-0.642-0.649-0.975-0.96c-0.205-0.19-0.191-0.334,0.004-0.518c0.323-0.304,0.617-0.64,0.95-0.932
				c0.131-0.115,0.333-0.207,0.504-0.209C57.753,65.906,59.147,65.913,60.541,65.913z"/>
			<linearGradient id="SVGID_19_" gradientUnits="userSpaceOnUse" x1="39.1882" y1="99.6061" x2="39.1882" y2="-0.6488">
				<stop  offset="0" style="stop-color:#FFF33B"/>
				<stop  offset="0.0595" style="stop-color:#FFE029"/>
				<stop  offset="0.1303" style="stop-color:#FFD218"/>
				<stop  offset="0.2032" style="stop-color:#FEC90F"/>
				<stop  offset="0.2809" style="stop-color:#FDC70C"/>
				<stop  offset="0.6685" style="stop-color:#F3903F"/>
				<stop  offset="0.8876" style="stop-color:#ED683C"/>
				<stop  offset="1" style="stop-color:#E93E3A"/>
			</linearGradient>
			<path style="fill:url(#SVGID_19_);" d="M39.196,65.913c1.381,0,2.763-0.008,4.144,0.01c0.183,0.002,0.398,0.102,0.539,0.224
				c0.335,0.29,0.628,0.627,0.951,0.931c0.188,0.177,0.185,0.315,0,0.491c-0.348,0.332-0.674,0.686-1.028,1.012
				c-0.095,0.087-0.254,0.147-0.384,0.147c-2.812,0.008-5.624,0.009-8.435-0.002c-0.151-0.001-0.333-0.082-0.446-0.185
				c-0.347-0.314-0.662-0.663-1.001-0.986c-0.175-0.167-0.168-0.3,0.001-0.463c0.354-0.343,0.689-0.707,1.055-1.037
				c0.101-0.092,0.281-0.135,0.425-0.136C36.409,65.909,37.803,65.913,39.196,65.913z"/>
			<linearGradient id="SVGID_20_" gradientUnits="userSpaceOnUse" x1="60.5315" y1="99.6061" x2="60.5315" y2="-0.6488">
				<stop  offset="0" style="stop-color:#FFF33B"/>
				<stop  offset="0.0595" style="stop-color:#FFE029"/>
				<stop  offset="0.1303" style="stop-color:#FFD218"/>
				<stop  offset="0.2032" style="stop-color:#FEC90F"/>
				<stop  offset="0.2809" style="stop-color:#FDC70C"/>
				<stop  offset="0.6685" style="stop-color:#F3903F"/>
				<stop  offset="0.8876" style="stop-color:#ED683C"/>
				<stop  offset="1" style="stop-color:#E93E3A"/>
			</linearGradient>
			<path style="fill:url(#SVGID_20_);" d="M60.535,43.614c-1.369,0-2.738-0.008-4.107,0.007c-0.272,0.003-0.463-0.075-0.643-0.273
				c-0.282-0.31-0.582-0.604-0.887-0.891c-0.181-0.17-0.207-0.308-0.016-0.491c0.357-0.34,0.692-0.703,1.053-1.039
				c0.086-0.08,0.236-0.128,0.356-0.129c2.824-0.007,5.648-0.007,8.472,0.001c0.13,0,0.29,0.064,0.386,0.153
				c0.353,0.326,0.678,0.682,1.028,1.012c0.194,0.183,0.166,0.319-0.012,0.49c-0.347,0.332-0.672,0.689-1.028,1.011
				c-0.102,0.092-0.279,0.142-0.422,0.143C63.322,43.618,61.929,43.614,60.535,43.614z"/>
			<linearGradient id="SVGID_21_" gradientUnits="userSpaceOnUse" x1="39.188" y1="99.6061" x2="39.188" y2="-0.6488">
				<stop  offset="0" style="stop-color:#FFF33B"/>
				<stop  offset="0.0595" style="stop-color:#FFE029"/>
				<stop  offset="0.1303" style="stop-color:#FFD218"/>
				<stop  offset="0.2032" style="stop-color:#FEC90F"/>
				<stop  offset="0.2809" style="stop-color:#FDC70C"/>
				<stop  offset="0.6685" style="stop-color:#F3903F"/>
				<stop  offset="0.8876" style="stop-color:#ED683C"/>
				<stop  offset="1" style="stop-color:#E93E3A"/>
			</linearGradient>
			<path style="fill:url(#SVGID_21_);" d="M39.182,43.614c-1.381,0-2.763,0.008-4.144-0.01c-0.183-0.002-0.398-0.101-0.539-0.223
				c-0.344-0.298-0.649-0.641-0.977-0.958c-0.159-0.153-0.158-0.284-0.001-0.437c0.361-0.353,0.709-0.722,1.078-1.066
				c0.085-0.08,0.238-0.122,0.36-0.122c2.812-0.007,5.624-0.008,8.436,0.003c0.151,0.001,0.333,0.081,0.447,0.184
				c0.347,0.314,0.662,0.663,1.001,0.986c0.175,0.167,0.167,0.302-0.001,0.464c-0.354,0.343-0.689,0.707-1.055,1.037
				c-0.101,0.092-0.281,0.135-0.425,0.136C41.97,43.618,40.576,43.614,39.182,43.614z"/>
			<linearGradient id="SVGID_22_" gradientUnits="userSpaceOnUse" x1="78.1103" y1="99.6061" x2="78.1103" y2="-0.6488">
				<stop  offset="0" style="stop-color:#FFF33B"/>
				<stop  offset="0.0595" style="stop-color:#FFE029"/>
				<stop  offset="0.1303" style="stop-color:#FFD218"/>
				<stop  offset="0.2032" style="stop-color:#FEC90F"/>
				<stop  offset="0.2809" style="stop-color:#FDC70C"/>
				<stop  offset="0.6685" style="stop-color:#F3903F"/>
				<stop  offset="0.8876" style="stop-color:#ED683C"/>
				<stop  offset="1" style="stop-color:#E93E3A"/>
			</linearGradient>
			<path style="fill:url(#SVGID_22_);" d="M78.117,65.913c1.37,0,2.74,0.004,4.109-0.004c0.237-0.002,0.418,0.05,0.585,0.232
				c0.308,0.337,0.635,0.656,0.967,0.97c0.166,0.157,0.153,0.277-0.002,0.429c-0.37,0.363-0.725,0.741-1.099,1.099
				c-0.067,0.065-0.196,0.091-0.297,0.091c-2.838,0.005-5.677,0.006-8.515-0.003c-0.13,0-0.288-0.069-0.385-0.158
				c-0.353-0.326-0.679-0.682-1.028-1.013c-0.178-0.169-0.166-0.298,0.003-0.461c0.355-0.343,0.69-0.708,1.055-1.039
				c0.101-0.092,0.28-0.136,0.424-0.137C75.328,65.909,76.722,65.913,78.117,65.913z"/>
			<linearGradient id="SVGID_23_" gradientUnits="userSpaceOnUse" x1="21.614" y1="99.6061" x2="21.614" y2="-0.6488">
				<stop  offset="0" style="stop-color:#FFF33B"/>
				<stop  offset="0.0595" style="stop-color:#FFE029"/>
				<stop  offset="0.1303" style="stop-color:#FFD218"/>
				<stop  offset="0.2032" style="stop-color:#FEC90F"/>
				<stop  offset="0.2809" style="stop-color:#FDC70C"/>
				<stop  offset="0.6685" style="stop-color:#F3903F"/>
				<stop  offset="0.8876" style="stop-color:#ED683C"/>
				<stop  offset="1" style="stop-color:#E93E3A"/>
			</linearGradient>
			<path style="fill:url(#SVGID_23_);" d="M21.6,43.614c-1.382,0-2.764,0.007-4.146-0.009c-0.173-0.002-0.377-0.092-0.509-0.207
				c-0.334-0.291-0.627-0.63-0.953-0.931c-0.194-0.179-0.229-0.314-0.02-0.511c0.36-0.337,0.694-0.702,1.052-1.041
				c0.077-0.072,0.212-0.117,0.32-0.117c2.838-0.006,5.677-0.007,8.515,0.002c0.13,0,0.287,0.071,0.384,0.161
				c0.353,0.327,0.679,0.682,1.028,1.013c0.18,0.171,0.157,0.3-0.009,0.461c-0.355,0.343-0.689,0.708-1.055,1.039
				c-0.101,0.092-0.281,0.134-0.425,0.135C24.389,43.618,22.995,43.614,21.6,43.614z"/>
			<linearGradient id="SVGID_24_" gradientUnits="userSpaceOnUse" x1="32.9093" y1="99.6061" x2="32.9093" y2="-0.6488">
				<stop  offset="0" style="stop-color:#FFF33B"/>
				<stop  offset="0.0595" style="stop-color:#FFE029"/>
				<stop  offset="0.1303" style="stop-color:#FFD218"/>
				<stop  offset="0.2032" style="stop-color:#FEC90F"/>
				<stop  offset="0.2809" style="stop-color:#FDC70C"/>
				<stop  offset="0.6685" style="stop-color:#F3903F"/>
				<stop  offset="0.8876" style="stop-color:#ED683C"/>
				<stop  offset="1" style="stop-color:#E93E3A"/>
			</linearGradient>
			<path style="fill:url(#SVGID_24_);" d="M34.323,61.026c0,1.383,0.009,2.765-0.011,4.148c-0.003,0.195-0.109,0.424-0.239,0.575
				c-0.296,0.346-0.641,0.65-0.959,0.978c-0.14,0.144-0.254,0.158-0.401,0.006c-0.36-0.373-0.738-0.729-1.091-1.108
				c-0.08-0.086-0.124-0.239-0.124-0.361c-0.007-2.814-0.007-5.629,0.001-8.443c0-0.132,0.064-0.293,0.154-0.39
				c0.343-0.372,0.699-0.733,1.073-1.073c0.069-0.063,0.291-0.069,0.357-0.009c0.392,0.357,0.771,0.73,1.126,1.124
				c0.09,0.1,0.108,0.293,0.109,0.443C34.326,58.286,34.323,59.656,34.323,61.026z"/>
			<linearGradient id="SVGID_25_" gradientUnits="userSpaceOnUse" x1="66.8169" y1="99.6061" x2="66.8169" y2="-0.6488">
				<stop  offset="0" style="stop-color:#FFF33B"/>
				<stop  offset="0.0595" style="stop-color:#FFE029"/>
				<stop  offset="0.1303" style="stop-color:#FFD218"/>
				<stop  offset="0.2032" style="stop-color:#FEC90F"/>
				<stop  offset="0.2809" style="stop-color:#FDC70C"/>
				<stop  offset="0.6685" style="stop-color:#F3903F"/>
				<stop  offset="0.8876" style="stop-color:#ED683C"/>
				<stop  offset="1" style="stop-color:#E93E3A"/>
			</linearGradient>
			<path style="fill:url(#SVGID_25_);" d="M68.227,48.504c0,1.333-0.011,2.667,0.008,3.999c0.005,0.327-0.091,0.559-0.329,0.773
				c-0.303,0.272-0.59,0.563-0.863,0.865c-0.149,0.165-0.271,0.191-0.428,0.034c-0.366-0.367-0.741-0.726-1.094-1.105
				c-0.08-0.086-0.118-0.243-0.118-0.367c-0.006-2.814-0.007-5.629,0.002-8.443c0-0.133,0.061-0.295,0.15-0.392
				c0.334-0.363,0.696-0.7,1.038-1.056c0.151-0.157,0.27-0.171,0.428-0.005c0.349,0.366,0.723,0.709,1.062,1.084
				c0.093,0.102,0.137,0.283,0.138,0.429C68.231,45.715,68.227,47.109,68.227,48.504z"/>
			<linearGradient id="SVGID_26_" gradientUnits="userSpaceOnUse" x1="66.8068" y1="99.6061" x2="66.8068" y2="-0.6488">
				<stop  offset="0" style="stop-color:#FFF33B"/>
				<stop  offset="0.0595" style="stop-color:#FFE029"/>
				<stop  offset="0.1303" style="stop-color:#FFD218"/>
				<stop  offset="0.2032" style="stop-color:#FEC90F"/>
				<stop  offset="0.2809" style="stop-color:#FDC70C"/>
				<stop  offset="0.6685" style="stop-color:#F3903F"/>
				<stop  offset="0.8876" style="stop-color:#ED683C"/>
				<stop  offset="1" style="stop-color:#E93E3A"/>
			</linearGradient>
			<path style="fill:url(#SVGID_26_);" d="M65.398,61.048c0-1.259,0.021-2.518-0.011-3.776c-0.013-0.494,0.086-0.878,0.489-1.19
				c0.261-0.202,0.484-0.457,0.708-0.704c0.152-0.167,0.275-0.17,0.43-0.012c0.354,0.362,0.723,0.709,1.066,1.081
				c0.088,0.095,0.14,0.26,0.14,0.393c0.008,2.802,0.008,5.603-0.001,8.405c0,0.143-0.066,0.317-0.162,0.422
				c-0.332,0.364-0.698,0.698-1.038,1.056c-0.16,0.169-0.278,0.148-0.428-0.007c-0.343-0.355-0.708-0.689-1.037-1.057
				c-0.1-0.112-0.15-0.306-0.151-0.463C65.393,63.812,65.398,62.43,65.398,61.048z"/>
			<linearGradient id="SVGID_27_" gradientUnits="userSpaceOnUse" x1="78.1081" y1="99.6061" x2="78.1081" y2="-0.6488">
				<stop  offset="0" style="stop-color:#FFF33B"/>
				<stop  offset="0.0595" style="stop-color:#FFE029"/>
				<stop  offset="0.1303" style="stop-color:#FFD218"/>
				<stop  offset="0.2032" style="stop-color:#FEC90F"/>
				<stop  offset="0.2809" style="stop-color:#FDC70C"/>
				<stop  offset="0.6685" style="stop-color:#F3903F"/>
				<stop  offset="0.8876" style="stop-color:#ED683C"/>
				<stop  offset="1" style="stop-color:#E93E3A"/>
			</linearGradient>
			<path style="fill:url(#SVGID_27_);" d="M78.081,40.793c1.382,0,2.764,0.006,4.146-0.006c0.257-0.002,0.441,0.072,0.613,0.259
				c0.292,0.317,0.598,0.624,0.915,0.917c0.195,0.18,0.175,0.311-0.007,0.484c-0.34,0.322-0.656,0.67-1.002,0.987
				c-0.104,0.096-0.271,0.173-0.41,0.174c-2.813,0.01-5.626,0.01-8.44,0c-0.141,0-0.313-0.07-0.418-0.166
				c-0.355-0.324-0.68-0.681-1.029-1.012c-0.179-0.17-0.162-0.299,0.006-0.461c0.355-0.343,0.688-0.708,1.054-1.039
				c0.1-0.091,0.281-0.129,0.426-0.13C75.317,40.789,76.699,40.793,78.081,40.793z"/>
			<linearGradient id="SVGID_28_" gradientUnits="userSpaceOnUse" x1="21.6115" y1="99.6061" x2="21.6115" y2="-0.6488">
				<stop  offset="0" style="stop-color:#FFF33B"/>
				<stop  offset="0.0595" style="stop-color:#FFE029"/>
				<stop  offset="0.1303" style="stop-color:#FFD218"/>
				<stop  offset="0.2032" style="stop-color:#FEC90F"/>
				<stop  offset="0.2809" style="stop-color:#FDC70C"/>
				<stop  offset="0.6685" style="stop-color:#F3903F"/>
				<stop  offset="0.8876" style="stop-color:#ED683C"/>
				<stop  offset="1" style="stop-color:#E93E3A"/>
			</linearGradient>
			<path style="fill:url(#SVGID_28_);" d="M21.637,68.734c-1.357,0-2.715-0.01-4.072,0.008c-0.313,0.004-0.534-0.085-0.739-0.315
				c-0.271-0.303-0.565-0.587-0.861-0.865c-0.169-0.159-0.197-0.284-0.016-0.456c0.366-0.349,0.712-0.719,1.079-1.066
				c0.078-0.073,0.213-0.121,0.322-0.121c2.838-0.006,5.676-0.007,8.514,0.001c0.12,0,0.267,0.06,0.355,0.142
				c0.36,0.337,0.696,0.7,1.054,1.039c0.181,0.172,0.155,0.301-0.01,0.461c-0.354,0.343-0.688,0.709-1.053,1.04
				c-0.1,0.091-0.282,0.127-0.427,0.128C24.401,68.738,23.019,68.734,21.637,68.734z"/>
			<linearGradient id="SVGID_29_" gradientUnits="userSpaceOnUse" x1="32.9292" y1="99.6061" x2="32.9292" y2="-0.6488">
				<stop  offset="0" style="stop-color:#FFF33B"/>
				<stop  offset="0.0595" style="stop-color:#FFE029"/>
				<stop  offset="0.1303" style="stop-color:#FFD218"/>
				<stop  offset="0.2032" style="stop-color:#FEC90F"/>
				<stop  offset="0.2809" style="stop-color:#FDC70C"/>
				<stop  offset="0.6685" style="stop-color:#F3903F"/>
				<stop  offset="0.8876" style="stop-color:#ED683C"/>
				<stop  offset="1" style="stop-color:#E93E3A"/>
			</linearGradient>
			<path style="fill:url(#SVGID_29_);" d="M34.323,48.467c0,1.382,0.009,2.765-0.011,4.147c-0.003,0.195-0.108,0.423-0.237,0.574
				c-0.287,0.337-0.626,0.629-0.931,0.953c-0.147,0.156-0.267,0.196-0.43,0.03c-0.363-0.37-0.739-0.727-1.092-1.107
				c-0.08-0.086-0.123-0.24-0.124-0.363c-0.007-2.814-0.007-5.628,0.001-8.442c0-0.131,0.064-0.292,0.153-0.389
				c0.335-0.362,0.698-0.698,1.038-1.056c0.152-0.159,0.279-0.186,0.426-0.01c0.016,0.019,0.035,0.035,0.052,0.052
				c0.377,0.389,0.89,0.72,1.092,1.185c0.19,0.438,0.058,1.018,0.06,1.536C34.325,46.541,34.323,47.504,34.323,48.467z"/>
			<linearGradient id="SVGID_30_" gradientUnits="userSpaceOnUse" x1="49.8542" y1="99.6061" x2="49.8542" y2="-0.6488">
				<stop  offset="0" style="stop-color:#FFF33B"/>
				<stop  offset="0.0595" style="stop-color:#FFE029"/>
				<stop  offset="0.1303" style="stop-color:#FFD218"/>
				<stop  offset="0.2032" style="stop-color:#FEC90F"/>
				<stop  offset="0.2809" style="stop-color:#FDC70C"/>
				<stop  offset="0.6685" style="stop-color:#F3903F"/>
				<stop  offset="0.8876" style="stop-color:#ED683C"/>
				<stop  offset="1" style="stop-color:#E93E3A"/>
			</linearGradient>
			<path style="fill:url(#SVGID_30_);" d="M49.861,62.436c-0.78,0.006-1.397-0.59-1.408-1.36c-0.012-0.785,0.606-1.429,1.38-1.441
				c0.759-0.011,1.427,0.651,1.424,1.412C51.254,61.802,50.622,62.431,49.861,62.436z"/>
			<linearGradient id="SVGID_31_" gradientUnits="userSpaceOnUse" x1="49.854" y1="99.6061" x2="49.854" y2="-0.6488">
				<stop  offset="0" style="stop-color:#FFF33B"/>
				<stop  offset="0.0595" style="stop-color:#FFE029"/>
				<stop  offset="0.1303" style="stop-color:#FFD218"/>
				<stop  offset="0.2032" style="stop-color:#FEC90F"/>
				<stop  offset="0.2809" style="stop-color:#FDC70C"/>
				<stop  offset="0.6685" style="stop-color:#F3903F"/>
				<stop  offset="0.8876" style="stop-color:#ED683C"/>
				<stop  offset="1" style="stop-color:#E93E3A"/>
			</linearGradient>
			<path style="fill:url(#SVGID_31_);" d="M48.452,48.474c0.004-0.791,0.624-1.394,1.422-1.384c0.758,0.01,1.39,0.651,1.383,1.401
				c-0.008,0.751-0.647,1.39-1.4,1.4C49.092,49.902,48.448,49.252,48.452,48.474z"/>
		</g>
	</g>
</g>
</svg>
